<svg width="185" height="61" viewBox="0 0 185 61" fill="none" xmlns="http://www.w3.org/2000/svg">
<g clip-path="url(#clip0_345_11)">
<path d="M30.0625 8.73242C33.0156 8.73242 34.8848 10.0508 35.6699 12.6875C36.8418 10.8008 38.3945 9.57031 40.3281 8.99609C40.9844 8.80859 41.8105 8.71484 42.8066 8.71484C43.8027 8.71484 44.7637 8.96094 45.6895 9.45312C46.627 9.94531 47.3184 10.5898 47.7637 11.3867C48.2207 12.1719 48.5078 13.0391 48.625 13.9883C48.7539 14.9375 48.8184 15.957 48.8184 17.0469V27.8398C48.8184 28.168 48.7129 28.4434 48.502 28.666C48.291 28.8887 47.9805 29 47.5703 29H45.8477C45.4023 29 45.0742 28.8887 44.8633 28.666C44.6523 28.4434 44.5469 28.168 44.5469 27.8398V16.8887C44.5469 15.377 44.2832 14.252 43.7559 13.5137C43.2402 12.7754 42.4199 12.4062 41.2949 12.4062C40.0176 12.4062 38.8984 12.9688 37.9375 14.0938C36.9062 15.2656 36.3906 16.7188 36.3906 18.4531V27.8398C36.3906 28.168 36.2852 28.4434 36.0742 28.666C35.8633 28.8887 35.5527 29 35.1426 29H33.4199C32.9746 29 32.6465 28.8887 32.4355 28.666C32.2246 28.4434 32.1191 28.168 32.1191 27.8398V16.8887C32.1191 15.377 31.8555 14.252 31.3281 13.5137C30.8125 12.7754 29.9922 12.4062 28.8672 12.4062C27.5898 12.4062 26.4648 12.9688 25.4922 14.0938C24.4727 15.2656 23.9629 16.7188 23.9629 18.4531V27.8398C23.9629 28.168 23.8633 28.4434 23.6641 28.666C23.4648 28.8887 23.1602 29 22.75 29H20.9395C20.5293 29 20.2188 28.8887 20.0078 28.666C19.7969 28.4434 19.6914 28.168 19.6914 27.8398V17.0469C19.6914 14.6914 19.6152 13.0508 19.4629 12.125C19.3105 11.1875 19.2344 10.625 19.2344 10.4375C19.2344 9.59375 19.6387 9.17188 20.4473 9.17188H21.4141C22.0703 9.17188 22.5156 9.41797 22.75 9.91016C23.0312 10.5078 23.3008 11.4336 23.5586 12.6875C24.5781 10.8477 26.0547 9.62891 27.9883 9.03125C28.6445 8.83203 29.3359 8.73242 30.0625 8.73242ZM71.1074 28.0684C71.1074 28.6895 70.8027 29 70.1934 29H68.4883C68.0312 29 67.7559 28.9121 67.6621 28.7363C67.5684 28.5488 67.5156 28.3848 67.5039 28.2441C67.4922 28.0918 67.4688 27.9102 67.4336 27.6992C67.3633 27.125 67.2637 26.5039 67.1348 25.8359C66.2207 27.5117 64.7852 28.6191 62.8281 29.1582C62.1367 29.3457 61.375 29.4395 60.543 29.4395C59.7109 29.4395 58.8789 29.2988 58.0469 29.0176C57.2148 28.748 56.4766 28.3438 55.832 27.8047C54.3789 26.5859 53.6523 24.9863 53.6523 23.0059C53.6523 20.8379 54.4492 19.1797 56.043 18.0312C57.3555 17.1055 59.043 16.6426 61.1055 16.6426C63.168 16.6426 64.9141 17.2461 66.3438 18.4531C66.3789 18.0547 66.3965 17.5566 66.3965 16.959C66.3965 16.3613 66.2793 15.7637 66.0449 15.166C65.8105 14.5684 65.4766 14.0703 65.043 13.6719C64.1523 12.8867 62.9102 12.4941 61.3164 12.4941C59.8867 12.4941 58.4336 12.8867 56.957 13.6719C56.6758 13.8242 56.4297 13.9004 56.2188 13.9004C55.9023 13.9004 55.5977 13.5898 55.3047 12.9688C54.9883 12.3359 54.8301 11.8789 54.8301 11.5977C54.8301 11.082 55.2168 10.584 55.9902 10.1035C57.4668 9.18945 59.4414 8.73242 61.9141 8.73242C64.1641 8.73242 66.0273 9.34766 67.5039 10.5781C69.25 12.0547 70.123 14.1406 70.123 16.8359C70.123 18.0312 69.9297 19.5371 69.543 21.3535C70.5391 24.1895 71.0605 26.4277 71.1074 28.0684ZM59.3301 20.6152C58.8496 20.9668 58.5039 21.3184 58.293 21.6699C58.0938 22.0215 57.9941 22.4375 57.9941 22.918C57.9941 23.3867 58.0762 23.8086 58.2402 24.1836C58.416 24.5469 58.6562 24.8516 58.9609 25.0977C59.6055 25.6016 60.3262 25.8535 61.123 25.8535C61.9316 25.8535 62.5938 25.7598 63.1094 25.5723C63.625 25.3848 64.0703 25.1445 64.4453 24.8516C65.2539 24.2188 65.6582 23.5508 65.6582 22.8477C65.5879 21.9688 65.1016 21.2773 64.1992 20.7734C63.3906 20.3047 62.4355 20.0703 61.334 20.0703C60.4785 20.0703 59.8105 20.252 59.3301 20.6152ZM81.0215 27.1191C82.123 26.5801 83.2891 26.3105 84.5195 26.3105C85.7617 26.3105 86.8633 26.4277 87.8242 26.6621C88.7969 26.8848 89.6699 27.2422 90.4434 27.7344C92.1777 28.8359 93.0449 30.377 93.0449 32.3574C93.0449 34.4199 92.0605 36.0781 90.0918 37.332C88.3457 38.4336 86.248 38.9844 83.7988 38.9844C81.3027 38.9844 79.2227 38.4453 77.5586 37.3672C75.7656 36.1953 74.8691 34.6016 74.8691 32.5859C74.8691 30.1367 76.1641 27.7695 78.7539 25.4844C79.7617 24.6055 80.875 23.8145 82.0938 23.1113C80.1836 22.9355 78.5547 22.2617 77.207 21.0898C75.6953 19.7656 74.9395 18.1191 74.9395 16.1504C74.9395 13.8887 75.7891 12.0547 77.4883 10.6484C79.0469 9.37109 80.9043 8.73242 83.0605 8.73242C85.3809 8.73242 87.2031 9.35938 88.5273 10.6133C88.9375 11 89.2656 11.4395 89.5117 11.9316C89.5117 10.8535 89.3711 9.74023 89.0898 8.5918C88.8203 7.43164 88.6855 6.74023 88.6855 6.51758C88.6855 6.29492 88.7266 6.11914 88.8086 5.99023C88.9023 5.84961 89.0078 5.74414 89.125 5.67383C89.3008 5.56836 89.5 5.51562 89.7227 5.51562H91.2344C92.207 5.51562 92.6934 6.86914 92.6934 9.57617C92.6934 11.7441 92.2598 13.7422 91.3926 15.5703C91.416 15.8281 91.4277 16.168 91.4277 16.5898C91.4277 17.0117 91.334 17.5039 91.1465 18.0664C90.959 18.6289 90.707 19.1562 90.3906 19.6484C90.0859 20.1289 89.7285 20.5742 89.3184 20.9844C88.9199 21.3945 88.4922 21.7754 88.0352 22.127C87.5898 22.4785 87.1387 22.8008 86.6816 23.0938C84.1152 24.7227 82.5801 25.7422 82.0762 26.1523C81.5723 26.5508 81.2207 26.873 81.0215 27.1191ZM80.2129 18.9629C80.6113 19.3027 81.0742 19.5664 81.6016 19.7539C82.1406 19.9297 82.709 20.0176 83.3066 20.0176C83.916 20.0176 84.4727 19.9297 84.9766 19.7539C85.4805 19.5664 85.9258 19.2969 86.3125 18.9453C87.1328 18.207 87.543 17.2578 87.543 16.0977C87.543 14.9141 87.0859 13.9824 86.1719 13.3027C85.3633 12.7051 84.3672 12.4062 83.1836 12.4062C81.3086 12.4062 80.0137 13.1035 79.2988 14.498C79.0645 14.9551 78.9473 15.4883 78.9473 16.0977C78.9473 16.6953 79.0586 17.2344 79.2812 17.7148C79.5039 18.1953 79.8145 18.6113 80.2129 18.9629ZM79.3691 30.3711C78.9355 30.8633 78.7188 31.4082 78.7188 32.0059C78.7188 32.6035 78.8652 33.1133 79.1582 33.5352C79.4512 33.957 79.8379 34.3086 80.3184 34.5898C81.2441 35.1172 82.4043 35.3809 83.7988 35.3809C86.002 35.3809 87.5371 34.8359 88.4043 33.7461C88.6855 33.3828 88.8262 32.9258 88.8262 32.375C88.8262 31.8242 88.6504 31.3555 88.2988 30.9688C87.959 30.582 87.5312 30.2832 87.0156 30.0723C86.1602 29.7207 85.0469 29.5449 83.6758 29.5449C81.5664 29.5449 80.1309 29.8203 79.3691 30.3711ZM99.3203 5.7793C98.5234 5.7793 97.8438 5.50391 97.2812 4.95312C96.7188 4.41406 96.4375 3.73438 96.4375 2.91406C96.4375 2.11719 96.7188 1.4375 97.2812 0.875C97.8203 0.335937 98.5 0.0664062 99.3203 0.0664062C100.574 0.0664062 101.453 0.640625 101.957 1.78906C102.109 2.12891 102.186 2.50391 102.186 2.91406C102.186 3.73438 101.904 4.41406 101.342 4.95312C100.779 5.50391 100.105 5.7793 99.3203 5.7793ZM101.377 24.166C101.377 24.998 101.652 25.4141 102.203 25.4141C102.391 25.4141 102.602 25.3613 102.836 25.2559C103.293 25.0566 103.604 24.957 103.768 24.957C104.014 24.957 104.213 25.127 104.365 25.4668L104.91 26.6973C105.004 26.8965 105.051 27.084 105.051 27.2598C105.051 27.7637 104.617 28.2324 103.75 28.666C102.93 29.0879 102.115 29.2988 101.307 29.2988C100.51 29.2988 99.8711 29.2109 99.3906 29.0352C98.9102 28.8594 98.5 28.5664 98.1602 28.1562C97.4805 27.3125 97.1406 25.9414 97.1406 24.043V10.332C97.1406 10.0039 97.2344 9.72852 97.4219 9.50586C97.6094 9.2832 97.832 9.17188 98.0898 9.17188H100.445C100.715 9.17188 100.938 9.2832 101.113 9.50586C101.289 9.72852 101.377 10.0039 101.377 10.332V24.166ZM122.4 16.9941C121.439 16.9941 120.959 16.5195 120.959 15.5703C120.959 14.4805 120.625 13.6484 119.957 13.0742C119.383 12.5703 118.609 12.3184 117.637 12.3184C116.676 12.3184 115.879 12.5176 115.246 12.916C114.613 13.3145 114.098 13.8242 113.699 14.4453C112.926 15.6641 112.539 17.1289 112.539 18.8398C112.539 22.0391 113.512 24.1367 115.457 25.1328C116.16 25.4961 116.939 25.6777 117.795 25.6777C118.65 25.6777 119.354 25.584 119.904 25.3965C120.455 25.209 120.947 25.0039 121.381 24.7812C121.814 24.5586 122.189 24.3535 122.506 24.166C122.834 23.9785 123.104 23.8848 123.314 23.8848C123.736 23.8848 124.07 24.0781 124.316 24.4648L124.703 25.1152C124.879 25.4199 124.967 25.7188 124.967 26.0117C124.967 26.293 124.85 26.5918 124.615 26.9082C124.381 27.2129 124.064 27.4941 123.666 27.752C123.279 28.0098 122.834 28.2441 122.33 28.4551C121.826 28.666 121.305 28.8477 120.766 29C118.188 29.6914 115.832 29.5859 113.699 28.6836C111.309 27.6758 109.662 25.8711 108.76 23.2695C108.314 21.9805 108.092 20.5391 108.092 18.9453C108.092 17.3516 108.326 15.9219 108.795 14.6562C109.275 13.3906 109.938 12.3184 110.781 11.4395C112.527 9.63477 114.807 8.73242 117.619 8.73242C120.104 8.73242 122.008 9.38281 123.332 10.6836C124.445 11.7969 125.002 13.1914 125.002 14.8672C125.002 16.2852 124.275 16.9941 122.822 16.9941H122.4Z" fill="#7D634F"/>
<path d="M105.736 54.8359C107.986 54.8359 109.111 54.0801 109.111 52.5684C109.111 51.7363 108.473 51.0332 107.195 50.459C106.656 50.2129 106.064 49.9844 105.42 49.7734C104.787 49.5625 104.178 49.3105 103.592 49.0176C103.006 48.7246 102.455 48.4082 101.939 48.0684C101.436 47.7168 100.996 47.3184 100.621 46.873C99.8477 45.9355 99.4609 44.7461 99.4609 43.3047C99.4609 41.5469 100.193 40.1523 101.658 39.1211C102.959 38.1953 104.559 37.7324 106.457 37.7324C108.496 37.7324 110.201 38.1309 111.572 38.9277C112.041 39.209 112.275 39.5312 112.275 39.8945C112.275 40.4102 112.135 40.9785 111.854 41.5996C111.584 42.209 111.262 42.5137 110.887 42.5137C110.523 42.5137 110.189 42.4375 109.885 42.2852C109.592 42.1328 109.322 42.0039 109.076 41.8984C108.842 41.7812 108.59 41.6875 108.32 41.6172C107.734 41.4414 107.189 41.3535 106.686 41.3535C106.193 41.3535 105.795 41.3887 105.49 41.459C105.186 41.5293 104.91 41.6406 104.664 41.793C104.066 42.1562 103.768 42.6016 103.768 43.1289C103.768 43.6562 103.885 44.0605 104.119 44.3418C104.365 44.623 104.699 44.8809 105.121 45.1152C105.543 45.3496 106.047 45.584 106.633 45.8184L108.531 46.6094C110.066 47.2773 111.104 47.8809 111.643 48.4199C112.697 49.498 113.225 50.7461 113.225 52.1641C113.225 53.9453 112.615 55.4102 111.396 56.5586C110.049 57.8125 108.133 58.4395 105.648 58.4395C103.129 58.4395 101.236 57.9531 99.9707 56.9805C99.3496 56.5117 99.0391 56.0898 99.0391 55.7148C99.0391 55.3398 99.1035 55.0059 99.2324 54.7129C99.373 54.4082 99.5488 54.0566 99.7598 53.6582C99.9824 53.248 100.275 53.043 100.639 53.043C101.014 53.043 101.406 53.2129 101.816 53.5527C102.238 53.8809 102.812 54.1797 103.539 54.4492C104.266 54.707 104.998 54.8359 105.736 54.8359ZM117.109 48.0156C117.109 46.4922 117.361 45.0977 117.865 43.832C118.381 42.5547 119.084 41.4648 119.975 40.5625C121.838 38.6758 124.188 37.7324 127.023 37.7324C130.199 37.7324 132.66 38.6758 134.406 40.5625C136.094 42.3789 136.938 44.875 136.938 48.0508C136.938 51.1211 135.982 53.6289 134.072 55.5742C132.209 57.4844 129.859 58.4395 127.023 58.4395C124.035 58.4395 121.633 57.4609 119.816 55.5039C118.012 53.5938 117.109 51.0977 117.109 48.0156ZM122.752 43.5508C122.318 44.1953 122.002 44.9336 121.803 45.7656C121.604 46.5859 121.504 47.4238 121.504 48.2793C121.504 49.123 121.615 49.9375 121.838 50.7227C122.072 51.4961 122.418 52.1875 122.875 52.7969C123.883 54.1328 125.289 54.8008 127.094 54.8008C128.934 54.8008 130.328 54.1445 131.277 52.832C132.121 51.6836 132.543 50.1191 132.543 48.1387C132.543 45.1738 131.57 43.1289 129.625 42.0039C128.91 41.5938 128.043 41.3887 127.023 41.3887C126.016 41.3887 125.16 41.5879 124.457 41.9863C123.766 42.373 123.197 42.8945 122.752 43.5508ZM153.531 40.8438C153.531 41.5 153.162 41.8281 152.424 41.8281H148.135V56.752C148.135 57.127 148.029 57.4316 147.818 57.666C147.607 57.8887 147.314 58 146.939 58H145.217C144.807 58 144.49 57.8887 144.268 57.666C144.045 57.4316 143.934 57.127 143.934 56.752V41.8281H141.455C140.717 41.8281 140.348 41.4941 140.348 40.8262V39.8418C140.348 39.5723 140.418 39.373 140.559 39.2441C140.711 39.1035 140.986 38.9746 141.385 38.8574L144.004 38.4355C143.406 36.8652 143.055 35.7051 142.949 34.9551C142.855 34.1934 142.809 33.4727 142.809 32.793C142.809 32.1016 142.961 31.3809 143.266 30.6309C143.57 29.8809 144.016 29.2188 144.602 28.6445C145.914 27.3555 147.66 26.7109 149.84 26.7109C151.562 26.7109 153.045 27.0801 154.287 27.8184C154.979 28.2402 155.324 28.6211 155.324 28.9609C155.324 29.2891 155.219 29.5996 155.008 29.8926L154.164 31.0879C153.93 31.4043 153.707 31.5625 153.496 31.5625C153.297 31.5625 153.104 31.5039 152.916 31.3867C152.729 31.2695 152.506 31.1406 152.248 31C151.557 30.625 150.76 30.4375 149.857 30.4375C147.877 30.4375 146.887 31.6855 146.887 34.1816C146.887 35.3887 147.156 36.7188 147.695 38.1719H152.424C153.162 38.1719 153.531 38.4941 153.531 39.1387V40.8438ZM173.166 57.0684C173.166 57.6895 172.861 58 172.252 58H170.547C170.09 58 169.814 57.9121 169.721 57.7363C169.627 57.5488 169.574 57.3848 169.562 57.2441C169.551 57.0918 169.527 56.9102 169.492 56.6992C169.422 56.125 169.322 55.5039 169.193 54.8359C168.279 56.5117 166.844 57.6191 164.887 58.1582C164.195 58.3457 163.434 58.4395 162.602 58.4395C161.77 58.4395 160.938 58.2988 160.105 58.0176C159.273 57.748 158.535 57.3438 157.891 56.8047C156.438 55.5859 155.711 53.9863 155.711 52.0059C155.711 49.8379 156.508 48.1797 158.102 47.0312C159.414 46.1055 161.102 45.6426 163.164 45.6426C165.227 45.6426 166.973 46.2461 168.402 47.4531C168.438 47.0547 168.455 46.5566 168.455 45.959C168.455 45.3613 168.338 44.7637 168.104 44.166C167.869 43.5684 167.535 43.0703 167.102 42.6719C166.211 41.8867 164.969 41.4941 163.375 41.4941C161.945 41.4941 160.492 41.8867 159.016 42.6719C158.734 42.8242 158.488 42.9004 158.277 42.9004C157.961 42.9004 157.656 42.5898 157.363 41.9688C157.047 41.3359 156.889 40.8789 156.889 40.5977C156.889 40.082 157.275 39.584 158.049 39.1035C159.525 38.1895 161.5 37.7324 163.973 37.7324C166.223 37.7324 168.086 38.3477 169.562 39.5781C171.309 41.0547 172.182 43.1406 172.182 45.8359C172.182 47.0312 171.988 48.5371 171.602 50.3535C172.598 53.1895 173.119 55.4277 173.166 57.0684ZM161.389 49.6152C160.908 49.9668 160.562 50.3184 160.352 50.6699C160.152 51.0215 160.053 51.4375 160.053 51.918C160.053 52.3867 160.135 52.8086 160.299 53.1836C160.475 53.5469 160.715 53.8516 161.02 54.0977C161.664 54.6016 162.385 54.8535 163.182 54.8535C163.99 54.8535 164.652 54.7598 165.168 54.5723C165.684 54.3848 166.129 54.1445 166.504 53.8516C167.312 53.2188 167.717 52.5508 167.717 51.8477C167.646 50.9688 167.16 50.2773 166.258 49.7734C165.449 49.3047 164.494 49.0703 163.393 49.0703C162.537 49.0703 161.869 49.252 161.389 49.6152Z" fill="#DB2626"/>
<path d="M3 31V58H29" stroke="#7D634F" stroke-width="5"/>
<path d="M155 3L182 3V29" stroke="#7D634F" stroke-width="5"/>
</g>
<defs>
<clipPath id="clip0_345_11">
<rect width="185" height="61" fill="white"/>
</clipPath>
</defs>
</svg>
